<svg aria-hidden="true" style="position: absolute; width: 0; height: 0; overflow: hidden;" version="1.1" xmlns="http://www.w3.org/2000/svg" xmlns:xlink="http://www.w3.org/1999/xlink">
<defs>
<symbol id="icon-facebook" viewBox="0 0 32 32">
<title>facebook</title>
<path d="M23.346 0.277c0 1.814 0 5.063 0 5.063s-3.731-0.372-4.666 1.058c-0.511 0.781-0.207 3.072-0.253 4.716 1.629 0 3.321 0 4.95 0-0.418 1.922-0.718 3.224-1.026 4.887-1.409 0-3.951 0-3.951 0v15.731c0 0-4.665 0-6.858 0 0.001-4.849-0.001-10.507 0-15.669-1.065 0-1.853 0-2.918 0 0-1.814 0-3.134 0-4.949 1.033 0 1.851 0 2.886 0 0.147-3.619 0.203-7.205 2.001-9.030 2.020-2.053 3.947-1.806 9.835-1.806z"></path>
</symbol>
<symbol id="icon-instagram" viewBox="0 0 32 32">
<title>instagram</title>
<path d="M27.048 30.731h-22.095c-2.033 0-3.683-1.649-3.683-3.684v-22.094c0-2.035 1.649-3.684 3.683-3.684h22.095c2.033 0 3.683 1.649 3.683 3.684v22.094c0 2.035-1.649 3.684-3.683 3.684zM16 10.291c-2.297 0-4.271 1.36-5.176 3.314h-0.006c-0.009 0.021-0.016 0.043-0.025 0.063-0.054 0.121-0.101 0.245-0.147 0.369-0.022 0.061-0.046 0.12-0.065 0.18-0.043 0.129-0.077 0.259-0.11 0.391-0.016 0.061-0.035 0.122-0.048 0.184-0.030 0.139-0.051 0.281-0.070 0.424-0.008 0.058-0.019 0.114-0.026 0.173-0.021 0.2-0.034 0.404-0.034 0.611 0 3.152 2.556 5.707 5.708 5.707s5.708-2.555 5.708-5.707c0-0.207-0.012-0.411-0.034-0.611-0.007-0.059-0.018-0.115-0.026-0.173-0.019-0.143-0.040-0.284-0.070-0.424-0.014-0.062-0.032-0.123-0.048-0.184-0.032-0.132-0.067-0.262-0.11-0.391-0.019-0.060-0.044-0.118-0.065-0.18-0.046-0.124-0.093-0.249-0.147-0.369-0.009-0.021-0.016-0.043-0.025-0.063h-0.006c-0.906-1.954-2.879-3.314-5.176-3.314zM27.416 6.056c0-0.813-0.66-1.472-1.473-1.472h-2.946c-0.813 0-1.473 0.658-1.473 1.472v2.947c0 0.813 0.66 1.473 1.473 1.473h2.946c0.813 0 1.473-0.66 1.473-1.473v-2.947zM27.416 13.606h-2.716c0.209 0.763 0.322 1.566 0.322 2.395 0 4.983-4.039 9.021-9.022 9.021s-9.022-4.038-9.022-9.021c0-0.829 0.113-1.632 0.322-2.395h-2.716v12.337c0 0.815 0.66 1.474 1.473 1.474h19.886c0.813 0 1.473-0.66 1.473-1.474v-12.337z"></path>
</symbol>
<symbol id="icon-pinterest" viewBox="0 0 32 32">
<title>pinterest</title>
<path d="M13.982 20.698c-0.256 1.022-0.515 2.093-0.782 3.14-0.264 1.033-0.497 2.080-0.881 3.030-0.637 1.571-1.445 3.090-2.506 4.319-0.705 0.818-0.556 0.492-0.768 0.448-0.162-0.034-0.176-0.193-0.207-0.423-0.173-1.249-0.055-2.692 0.009-4.096 0.074-1.6 0.41-2.929 0.722-4.258 0.594-2.532 1.161-5.014 1.76-7.561 0.039-0.169 0.147-0.449 0.11-0.546-0.272-0.708-0.449-1.343-0.526-2.087-0.089-0.853-0.021-1.648 0.171-2.384 0.34-1.298 1.12-2.447 2.323-2.868 0.766-0.265 1.613-0.145 2.128 0.162 0.53 0.318 0.895 0.818 1.064 1.528 0.181 0.754 0.048 1.657-0.098 2.32-0.328 1.495-0.758 2.618-1.149 4.060-0.194 0.715-0.414 1.45-0.232 2.223 0.167 0.709 0.536 1.197 1.039 1.564 0.523 0.38 1.141 0.588 1.993 0.558 1.506-0.053 2.553-1.016 3.252-1.923 1.12-1.454 1.797-3.415 2.055-5.748 0.082-0.753 0.144-1.618 0.086-2.471-0.108-1.575-0.6-2.842-1.382-3.824-0.744-0.936-1.798-1.679-3.081-2.099-1.272-0.415-3.032-0.553-4.597-0.286-2.843 0.487-4.848 2.102-6.029 4.334-0.618 1.168-1.027 2.511-1.027 4.183 0 1.289 0.318 2.288 0.832 3.067 0.163 0.246 0.402 0.45 0.562 0.732 0.227 0.4-0.034 0.995-0.146 1.428-0.135 0.521-0.15 1.241-0.758 1.254-0.253 0.005-0.569-0.179-0.782-0.298-1.601-0.884-2.572-2.494-2.971-4.58-0.243-1.268-0.241-2.747 0-3.972 0.233-1.186 0.667-2.279 1.149-3.166 0.998-1.844 2.462-3.318 4.243-4.37 1.369-0.809 2.913-1.377 4.793-1.651 0.623-0.091 1.268-0.129 1.969-0.162 2.046-0.095 3.906 0.368 5.307 0.994 1.478 0.661 2.658 1.541 3.655 2.632 1.028 1.122 1.776 2.427 2.25 4.059 0.248 0.849 0.488 1.757 0.488 2.806 0 1.052-0.222 1.978-0.378 2.905-0.581 3.469-2.231 6.306-4.708 7.922-0.6 0.39-1.326 0.752-2.152 0.992-0.818 0.238-1.752 0.417-2.751 0.347-0.97-0.066-1.765-0.33-2.432-0.708-0.662-0.374-1.22-0.833-1.614-1.526z"></path>
</symbol>
<symbol id="icon-twitter" viewBox="0 0 32 32">
<title>twitter</title>
<path d="M21.868 2.785c2.587-0.046 3.965 0.897 5.281 2.095 1.117-0.095 2.569-0.719 3.423-1.154 0.276-0.15 0.553-0.303 0.831-0.454-0.489 1.319-1.15 2.352-2.168 3.137-0.226 0.173-0.451 0.408-0.734 0.519 0 0.005 0 0.012 0 0.017 1.45-0.014 2.646-0.669 3.782-1.024 0 0.005 0 0.012 0 0.017-0.597 0.948-1.405 1.911-2.266 2.6-0.347 0.276-0.696 0.552-1.043 0.828 0.019 1.536-0.023 3.001-0.309 4.291-1.669 7.499-6.091 12.591-13.089 14.772-2.514 0.782-6.574 1.104-9.455 0.389-1.427-0.354-2.717-0.754-3.927-1.284-0.673-0.294-1.296-0.612-1.892-0.976-0.196-0.119-0.391-0.238-0.586-0.356 0.649 0.019 1.41 0.199 2.134 0.080 0.658-0.106 1.301-0.078 1.908-0.21 1.511-0.332 2.853-0.771 4.009-1.448 0.561-0.328 1.412-0.712 1.81-1.186-0.75 0.013-1.431-0.162-1.988-0.357-2.161-0.763-3.419-2.167-4.239-4.275 0.655 0.073 2.542 0.243 2.983-0.13-0.824-0.046-1.617-0.523-2.184-0.878-1.739-1.088-3.156-2.912-3.146-5.72 0.229 0.108 0.457 0.216 0.684 0.325 0.437 0.185 0.882 0.283 1.402 0.391 0.22 0.046 0.66 0.174 0.914 0.080-0.012 0-0.022 0-0.033 0-0.336-0.391-0.884-0.651-1.222-1.073-1.116-1.385-2.16-3.519-1.5-6.061 0.168-0.645 0.434-1.214 0.717-1.739 0.012 0.005 0.022 0.010 0.033 0.015 0.13 0.272 0.42 0.472 0.603 0.7 0.57 0.706 1.272 1.341 1.988 1.901 2.44 1.908 4.637 3.081 8.166 3.949 0.895 0.221 1.93 0.389 3 0.391-0.3-0.874-0.204-2.29 0.032-3.136 0.596-2.13 1.887-3.663 3.782-4.486 0.453-0.196 0.955-0.34 1.483-0.456 0.272-0.032 0.543-0.065 0.815-0.097z"></path>
</symbol>
</defs>
</svg>
